<svg xmlns="http://www.w3.org/2000/svg" width="200" height="200" viewBox="0 0 200 200">
  <circle cx="100" cy="80" r="60" fill="white" stroke="black" stroke-width="4"/>
  
  <!-- 头发 -->
  <path d="M40 80 Q40 40 50 40 Q60 40 60 50 Q70 40 80 40 Q90 40 90 50 Q100 40 110 40 Q120 40 120 50 Q130 40 140 40 Q150 40 160 80" fill="none" stroke="black" stroke-width="4"/>
  <path d="M50 40 Q55 30 60 40" fill="none" stroke="black" stroke-width="4"/>
  <path d="M70 40 Q75 30 80 40" fill="none" stroke="black" stroke-width="4"/>
  <path d="M90 40 Q95 30 100 40" fill="none" stroke="black" stroke-width="4"/>
  <path d="M110 40 Q115 30 120 40" fill="none" stroke="black" stroke-width="4"/>
  <path d="M130 40 Q135 30 140 40" fill="none" stroke="black" stroke-width="4"/>
  
  <!-- 耳朵 -->
  <ellipse cx="50" cy="80" rx="10" ry="15" fill="white" stroke="black" stroke-width="4"/>
  <ellipse cx="150" cy="80" rx="10" ry="15" fill="white" stroke="black" stroke-width="4"/>
  
  <!-- 眼睛 -->
  <circle cx="85" cy="75" r="5" fill="black"/>
  <circle cx="115" cy="75" r="5" fill="black"/>
  
  <!-- 嘴巴 -->
  <path d="M80 100 Q100 120 120 100" fill="none" stroke="black" stroke-width="4"/>
  
  <!-- 身体 -->
  <path d="M80 140 Q80 160 80 180" fill="none" stroke="black" stroke-width="4"/>
  <path d="M120 140 Q120 160 120 180" fill="none" stroke="black" stroke-width="4"/>
  <path d="M80 140 Q100 150 120 140" fill="none" stroke="black" stroke-width="4"/>
  <path d="M80 160 Q100 170 120 160" fill="none" stroke="black" stroke-width="4"/>
  
  <!-- 手臂 -->
  <path d="M80 150 Q60 140 50 160" fill="none" stroke="black" stroke-width="4"/>
  <path d="M120 150 Q140 140 150 160" fill="none" stroke="black" stroke-width="4"/>
  <path d="M50 160 Q45 155 40 165" fill="none" stroke="black" stroke-width="4"/>
  <path d="M150 160 Q155 155 160 165" fill="none" stroke="black" stroke-width="4"/>
</svg>